<svg id="BT_logoB_hvid" xmlns="http://www.w3.org/2000/svg" width="184.575" height="67.354" viewBox="0 0 184.575 67.354">
  <path id="Path_4" data-name="Path 4" d="M52.233,87.591H40V59.647H50.874a15.783,15.783,0,0,1,4.879.68,7.021,7.021,0,0,1,3.1,1.841,7.242,7.242,0,0,1,1.9,4.879,5.719,5.719,0,0,1-2.12,4.874,7.448,7.448,0,0,1-1,.7c-.189.095-.522.248-1,.45A7.332,7.332,0,0,1,60.766,75.4a6.521,6.521,0,0,1,1.539,4.42,7.5,7.5,0,0,1-2,5.185Q58,87.591,52.233,87.591Zm-5.995-16.63h2.957a10.02,10.02,0,0,0,3.857-.558,2.36,2.36,0,0,0,1.26-2.421,2.5,2.5,0,0,0-1.161-2.457,9.18,9.18,0,0,0-3.916-.6h-3Zm0,11.351h4.276a9.478,9.478,0,0,0,4.019-.657,2.612,2.612,0,0,0,1.35-2.6A2.5,2.5,0,0,0,54.452,76.5a12.251,12.251,0,0,0-4.55-.621H46.238Z" transform="translate(-40 -59.644)" fill="#fff"/>
  <path id="Path_5" data-name="Path 5" d="M164.11,78.8a4.5,4.5,0,0,0-4,1.9,8.822,8.822,0,0,0-1.319,5v9.316H152.8V73.544h5.995v2.84a10.077,10.077,0,0,1,2.9-2.25,7.822,7.822,0,0,1,3.538-.963l.04,5.639Z" transform="translate(-102.033 -67.083)" fill="#fff"/>
  <path id="Path_6" data-name="Path 6" d="M192.545,83.05V95.044H186.55V73.558h5.995v2.4a8.378,8.378,0,0,1,6.116-2.759,7.57,7.57,0,0,1,5.693,2.4,8.839,8.839,0,0,1,2.3,6.4V95.066h-5.995V82.915q0-4.951-3.637-4.951a4.379,4.379,0,0,0-3.15,1.3A5,5,0,0,0,192.545,83.05Z" transform="translate(-120.593 -67.097)" fill="#fff"/>
  <path id="Path_7" data-name="Path 7" d="M255.748,91.884a12.03,12.03,0,0,1-8.551,3.438,11.354,11.354,0,0,1-8.1-3.02,10.554,10.554,0,0,1-3.2-8.1,10.435,10.435,0,0,1,3.258-8.074,10.964,10.964,0,0,1,7.692-3,11.144,11.144,0,0,1,7.548,2.687,9.279,9.279,0,0,1,3.1,7.359v3.2H241.827a4.289,4.289,0,0,0,1.841,2.88,5.873,5.873,0,0,0,3.52,1.116,6.9,6.9,0,0,0,5.194-2.115Zm-5.765-12.75a4.532,4.532,0,0,0-3.015-1.04,5.4,5.4,0,0,0-3.258,1.08,4.114,4.114,0,0,0-1.719,2.916h9.451a4.258,4.258,0,0,0-1.458-2.957Z" transform="translate(-147.733 -67.056)" fill="#fff"/>
  <path id="Path_8" data-name="Path 8" d="M99,164.075a12.03,12.03,0,0,1-8.551,3.439,11.354,11.354,0,0,1-8.1-3.02,10.568,10.568,0,0,1-3.2-8.1,10.435,10.435,0,0,1,3.258-8.074,10.964,10.964,0,0,1,7.7-3,11.139,11.139,0,0,1,7.534,2.7,9.26,9.26,0,0,1,3.1,7.359v3.2H85.1a4.267,4.267,0,0,0,1.836,2.88,5.873,5.873,0,0,0,3.519,1.116,6.9,6.9,0,0,0,5.194-2.115Zm-5.756-12.75a4.532,4.532,0,0,0-3.015-1.04,5.4,5.4,0,0,0-3.258,1.08,4.127,4.127,0,0,0-1.719,2.916H94.7a4.258,4.258,0,0,0-1.458-2.979Z" transform="translate(-61.53 -106.757)" fill="#fff"/>
  <path id="Path_9" data-name="Path 9" d="M138.139,157.65h-6V128h6Z" transform="translate(-90.671 -97.236)" fill="#fff"/>
  <path id="Path_10" data-name="Path 10" d="M170.6,164.075a12.03,12.03,0,0,1-8.551,3.438,11.334,11.334,0,0,1-8.1-3.02,10.6,10.6,0,0,1-3.2-8.1A10.443,10.443,0,0,1,154,148.318a10.982,10.982,0,0,1,7.7-3,11.139,11.139,0,0,1,7.534,2.7,9.273,9.273,0,0,1,3.1,7.359v3.2H156.686a4.271,4.271,0,0,0,1.841,2.88,5.851,5.851,0,0,0,3.515,1.116,6.9,6.9,0,0,0,5.2-2.115Zm-5.756-12.75a4.541,4.541,0,0,0-3.02-1.04,5.4,5.4,0,0,0-3.258,1.08,4.109,4.109,0,0,0-1.715,2.916H166.3a4.276,4.276,0,0,0-1.458-2.979Z" transform="translate(-100.905 -106.757)" fill="#fff"/>
  <path id="Path_11" data-name="Path 11" d="M210.21,138.644v2.637H215.4v4.838H210.21V158.95h-6.04V138.365a7.293,7.293,0,0,1,2.462-5.959,8.929,8.929,0,0,1,5.9-2.039,8.479,8.479,0,0,1,6.076,2.561l-2.25,4.195a3.65,3.65,0,0,0-3.15-1.557,3.065,3.065,0,0,0-2.138.779A2.943,2.943,0,0,0,210.21,138.644Z" transform="translate(-130.283 -98.536)" fill="#fff"/>
  <path id="Path_12" data-name="Path 12" d="M309.647,155.162v11.994H303.63V145.648h6.017v2.4a8.373,8.373,0,0,1,6.112-2.759,7.57,7.57,0,0,1,5.7,2.4,8.838,8.838,0,0,1,2.3,6.4v13.052h-6.008V154.982q0-4.951-3.641-4.951a4.37,4.37,0,0,0-3.15,1.3A5.19,5.19,0,0,0,309.647,155.162Z" transform="translate(-184.98 -106.742)" fill="#fff"/>
  <path id="Path_13" data-name="Path 13" d="M372.362,164.075a12.021,12.021,0,0,1-8.551,3.439,11.354,11.354,0,0,1-8.1-3.02,10.568,10.568,0,0,1-3.2-8.1,10.435,10.435,0,0,1,3.258-8.074,10.964,10.964,0,0,1,7.7-3,11.139,11.139,0,0,1,7.534,2.7,9.241,9.241,0,0,1,3.1,7.359v3.2h-15.64a4.266,4.266,0,0,0,1.836,2.88,5.873,5.873,0,0,0,3.519,1.116A6.9,6.9,0,0,0,369,160.452Zm-5.756-12.75a4.532,4.532,0,0,0-3.015-1.04,5.4,5.4,0,0,0-3.258,1.08,4.127,4.127,0,0,0-1.719,2.916h9.451a4.24,4.24,0,0,0-1.458-2.979Z" transform="translate(-211.861 -106.757)" fill="#fff"/>
  <path id="Path_14" data-name="Path 14" d="M411.415,155.162v11.994H405.42V145.648h5.995v2.4a8.378,8.378,0,0,1,6.116-2.759,7.57,7.57,0,0,1,5.7,2.4,8.864,8.864,0,0,1,2.3,6.4v13.052h-6V154.982q0-4.951-3.637-4.951a4.361,4.361,0,0,0-3.15,1.3A5.148,5.148,0,0,0,411.415,155.162Z" transform="translate(-240.958 -106.742)" fill="#fff"/>
  <path id="Path_15" data-name="Path 15" d="M243.894,174.544l-1.265-6.836a10.879,10.879,0,0,1,2.1-21.608h6.508a10.895,10.895,0,0,1,.675,21.779Zm.833-23.489a5.951,5.951,0,1,0,0,11.886h2.061l.45,2.385,2.867-2.385h1.139a5.951,5.951,0,1,0,0-11.886Z" transform="translate(-146.424 -107.189)" fill="#fff"/>
  <path id="Path_16" data-name="Path 16" d="M117.015,73.339,113.374,70l-2.6,2.817a11.531,11.531,0,0,0-5.707-1.4,11.09,11.09,0,0,0-8.137,3.218,11.252,11.252,0,0,0-1.157,14.4L93.4,91.608l3.641,3.362,2.471-2.7a11.7,11.7,0,0,0,5.554,1.3,11.1,11.1,0,0,0,8.133-3.2,11.252,11.252,0,0,0,1.26-14.276ZM99.705,82.53a6.247,6.247,0,0,1,1.5-4.316,4.924,4.924,0,0,1,3.839-1.679,5.361,5.361,0,0,1,1.949.351l-7.021,7.62A7.422,7.422,0,0,1,99.705,82.53Zm10.675,0a6.161,6.161,0,0,1-1.5,4.3,4.951,4.951,0,0,1-3.839,1.661,5.576,5.576,0,0,1-1.764-.279l6.9-7.471a7.584,7.584,0,0,1,.2,1.791Z" transform="translate(-69.367 -65.339)" fill="#fff"/>
  <path id="Path_17" data-name="Path 17" d="M53.817,137.079v22.665H47.741V137.079H40V131.71H62.053v5.369Z" transform="translate(-40 -99.276)" fill="#fff"/>
</svg>
