<svg xmlns="http://www.w3.org/2000/svg" width="562.5" height="396.059" viewBox="0 0 562.5 396.059">
  <g id="Group_70" data-name="Group 70" transform="translate(-308.5 -2032)" opacity="0.408">
    <path id="Union_2" data-name="Union 2" d="M-4717.523-2573H-4867a75,75,0,0,1-75-75v-90a75,75,0,0,1,75-75h225a75,75,0,0,1,75,75v90a75,75,0,0,1-75,75h-21.11l20.519,72.118Z" transform="translate(5438 4845)" fill="#d6d6d6"/>
    <path id="Union_1" data-name="Union 1" d="M-4857.949-2573H-4867a75,75,0,0,1-75-75v-90a75,75,0,0,1,75-75h225a75,75,0,0,1,75,75v90a75,75,0,0,1-75,75h-161.538l-74.93,72.118Z" transform="translate(5250.5 4928.94)" fill="#bababa"/>
  </g>
</svg>
