<svg xmlns="http://www.w3.org/2000/svg" width="41.828" height="41.828" viewBox="0 0 41.828 41.828">
  <path id="Icon_akar-instagram-fill" data-name="Icon akar-instagram-fill" d="M13.792,1.625c2.23-.1,2.941-.125,8.622-.125s6.392.025,8.62.125a15.391,15.391,0,0,1,5.08.972,10.706,10.706,0,0,1,6.114,6.116A15.381,15.381,0,0,1,43.2,13.79c.1,2.234.125,2.945.125,8.624s-.025,6.392-.125,8.622a15.332,15.332,0,0,1-.973,5.076,10.677,10.677,0,0,1-6.114,6.116,15.381,15.381,0,0,1-5.076.973c-2.232.1-2.943.125-8.624.125s-6.392-.025-8.622-.125a15.332,15.332,0,0,1-5.076-.973A10.261,10.261,0,0,1,5.01,39.818a10.252,10.252,0,0,1-2.413-3.7,15.436,15.436,0,0,1-.972-5.076c-.1-2.234-.125-2.945-.125-8.624s.025-6.392.125-8.62A15.391,15.391,0,0,1,2.6,8.713a10.259,10.259,0,0,1,2.415-3.7A10.252,10.252,0,0,1,8.713,2.6a15.436,15.436,0,0,1,5.076-.972ZM30.865,5.39c-2.205-.1-2.867-.122-8.451-.122s-6.246.021-8.451.122a11.559,11.559,0,0,0-3.884.721A6.494,6.494,0,0,0,7.673,7.673a6.487,6.487,0,0,0-1.563,2.405,11.559,11.559,0,0,0-.721,3.884c-.1,2.205-.122,2.867-.122,8.451s.021,6.246.122,8.451a11.559,11.559,0,0,0,.721,3.884,6.492,6.492,0,0,0,1.563,2.405,6.492,6.492,0,0,0,2.405,1.563,11.559,11.559,0,0,0,3.884.721c2.205.1,2.865.122,8.451.122s6.246-.021,8.451-.122a11.559,11.559,0,0,0,3.884-.721,6.907,6.907,0,0,0,3.968-3.968,11.559,11.559,0,0,0,.721-3.884c.1-2.205.122-2.867.122-8.451s-.021-6.246-.122-8.451a11.559,11.559,0,0,0-.721-3.884,6.494,6.494,0,0,0-1.563-2.405,6.489,6.489,0,0,0-2.405-1.563,11.559,11.559,0,0,0-3.884-.721ZM19.743,28.861a6.978,6.978,0,1,0-4.3-6.447,6.976,6.976,0,0,0,4.3,6.447Zm-4.93-14.048a10.75,10.75,0,1,1,0,15.2,10.75,10.75,0,0,1,0-15.2Zm20.735-1.548a2.542,2.542,0,1,0-3.542-.052A2.542,2.542,0,0,0,35.548,13.265Z" transform="translate(-1.5 -1.5)" fill="#fff"/>
</svg>
