<?xml version="1.0" encoding="UTF-8"?>
<svg id="Layer_2" data-name="Layer 2" xmlns="http://www.w3.org/2000/svg" viewBox="0 0 538.28 167.48">
  <defs>
    <style>
      .cls-1 {
        fill: #fff;
        stroke-width: 0px;
      }
    </style>
  </defs>
  <g id="Layer_1-2" data-name="Layer 1">
    <g>
      <path class="cls-1" d="M83.75,0C37.5,0,0,37.49,0,83.74s37.5,83.74,83.75,83.74,83.74-37.49,83.74-83.74S130,0,83.75,0ZM122.15,120.78c-1.5,2.46-4.72,3.24-7.18,1.73-19.66-12.01-44.41-14.73-73.56-8.07-2.81.64-5.61-1.12-6.25-3.93-.65-2.81,1.11-5.61,3.92-6.25,31.9-7.29,59.27-4.15,81.34,9.34,2.46,1.51,3.24,4.72,1.73,7.18ZM132.4,97.97c-1.89,3.08-5.91,4.05-8.98,2.16-22.51-13.84-56.82-17.85-83.45-9.76-3.45,1.04-7.1-.91-8.15-4.35-1.04-3.46.91-7.1,4.36-8.15,30.41-9.23,68.22-4.76,94.07,11.13,3.07,1.89,4.04,5.9,2.15,8.97ZM133.28,74.23c-26.99-16.03-71.52-17.5-97.29-9.68-4.14,1.25-8.51-1.08-9.77-5.22-1.25-4.14,1.08-8.52,5.22-9.77,29.58-8.98,78.76-7.25,109.83,11.2,3.73,2.21,4.95,7.01,2.74,10.73-2.2,3.72-7.02,4.95-10.73,2.74Z"/>
      <path class="cls-1" d="M227.84,77.3c-14.46-3.45-17.03-5.87-17.03-10.95,0-4.8,4.52-8.04,11.25-8.04s12.98,2.45,19.76,7.51c.2.15.46.21.71.17.26-.04.48-.18.63-.39l7.06-9.95c.29-.41.21-.97-.18-1.29-8.07-6.47-17.15-9.62-27.77-9.62-15.61,0-26.52,9.37-26.52,22.77,0,14.38,9.41,19.46,25.67,23.39,13.83,3.19,16.17,5.86,16.17,10.63,0,5.29-4.72,8.58-12.32,8.58-8.44,0-15.33-2.85-23.03-9.51-.19-.17-.45-.24-.69-.23-.26.02-.49.14-.65.33l-7.92,9.42c-.33.4-.29.98.09,1.32,8.96,8,19.98,12.22,31.88,12.22,16.82,0,27.69-9.19,27.69-23.42.03-12.01-7.16-18.66-24.77-22.94,0,0-.03-.01-.03-.01Z"/>
      <path class="cls-1" d="M290.71,63.04h-.01c-7.29,0-13.27,2.87-18.21,8.76v-6.62c0-.53-.42-.95-.94-.95h-12.95c-.52,0-.94.42-.94.95v73.6c0,.52.42.95.94.95h12.95c.52,0,.94-.43.94-.95v-23.23c4.94,5.53,10.92,8.24,18.21,8.24,13.55,0,27.27-10.43,27.27-30.37.02-19.95-13.7-30.38-27.26-30.38ZM287.7,110.66c-8.85,0-15.53-7.41-15.53-17.24s6.68-17.24,15.53-17.24,15.21,7.25,15.21,17.24-6.25,17.24-15.21,17.24Z"/>
      <path class="cls-1" d="M353.12,63.04c-17.45,0-31.12,13.44-31.12,30.59s13.58,30.27,30.91,30.27,31.22-13.39,31.22-30.48-13.62-30.38-31.01-30.38ZM353.12,110.76c-9.28,0-16.28-7.46-16.28-17.35s6.76-17.13,16.07-17.13,16.38,7.46,16.38,17.35-6.8,17.13-16.17,17.13Z"/>
      <path class="cls-1" d="M421.39,64.23h-14.25v-14.57c0-.52-.42-.95-.94-.95h-12.95c-.52,0-.95.43-.95.95v14.57h-6.22c-.52,0-.94.43-.94.95v11.13c0,.52.42.95.94.95h6.22v28.79c0,11.63,5.79,17.53,17.22,17.53,4.64,0,8.49-.96,12.12-3.02.3-.16.48-.48.48-.82v-10.6c0-.32-.17-.63-.45-.8-.28-.18-.63-.19-.92-.04-2.49,1.25-4.9,1.83-7.6,1.83-4.15,0-6.01-1.89-6.01-6.11v-26.76h14.25c.52,0,.94-.43.94-.95v-11.13c.02-.52-.4-.95-.93-.95h-.01s0,0,0,0Z"/>
      <path class="cls-1" d="M471.03,64.28v-1.79c0-5.26,2.02-7.61,6.54-7.61,2.7,0,4.87.54,7.3,1.35.3.09.61.05.85-.13.25-.18.39-.47.39-.77v-10.91c0-.42-.26-.79-.67-.91-2.56-.76-5.84-1.55-10.76-1.55-11.95,0-18.28,6.73-18.28,19.47v2.74h-6.22c-.52,0-.95.43-.95.95v11.18c0,.52.43.95.95.95h6.22v44.4c0,.53.43.95.95.95h12.94c.53,0,.95-.42.95-.95v-44.4h12.09l18.52,44.4c-2.1,4.66-4.17,5.59-6.99,5.59-2.28,0-4.69-.68-7.14-2.03-.23-.12-.51-.14-.75-.07-.25.09-.46.27-.56.51l-4.39,9.63c-.21.46-.03.99.41,1.23,4.58,2.48,8.71,3.54,13.82,3.54,9.56,0,14.85-4.46,19.5-16.44l22.46-58.04c.12-.29.08-.62-.1-.88-.17-.26-.46-.41-.77-.41h-13.48c-.41,0-.77.26-.9.64l-13.81,39.43-15.12-39.46c-.14-.37-.49-.61-.88-.61h-22.12s0,0,0,0Z"/>
      <path class="cls-1" d="M442.25,64.23h-12.95c-.52,0-.95.43-.95.95v56.48c0,.53.43.95.95.95h12.95c.52,0,.95-.42.95-.95v-56.48c0-.52-.42-.95-.95-.95,0,0,0,0,0,0Z"/>
      <path class="cls-1" d="M435.85,38.51c-5.13,0-9.29,4.15-9.29,9.28s4.16,9.29,9.29,9.29,9.28-4.16,9.28-9.29-4.16-9.28-9.28-9.28Z"/>
    </g>
  </g>
</svg>