<svg width="23" height="18" viewBox="0 0 23 18" fill="none" xmlns="http://www.w3.org/2000/svg">
<g clip-path="url(#clip0_1_245)">
<path d="M14.6407 18C14.5462 17.7112 14.4045 17.3262 14.3573 16.9411C14.2628 16.2673 14.4517 15.4973 14.8296 15.3048C16.6715 13.9572 18.5606 12.6096 20.4025 11.262C20.4969 11.1657 20.5914 11.0695 20.6386 10.7807C20.2608 10.877 19.8357 10.9732 19.4579 10.9732C14.9713 11.9358 10.4374 11.9358 5.95072 11.8395C4.29774 11.8395 2.64476 11.7433 1.03901 11.7433C0.613962 11.7433 0.377823 11.262 0.188911 10.5882C-8.97795e-07 9.81814 -8.97795e-07 9.14434 0.283367 8.5668C0.519506 8.08552 0.850102 7.70049 1.32238 7.70049C6.32854 7.70049 11.2875 7.70049 16.2936 7.70049C16.7187 7.70049 17.0965 7.70049 17.5688 7.60424C17.4743 7.41172 17.3799 7.31547 17.2382 7.12295C16.7187 6.54541 16.2464 6.06413 15.7269 5.48659C15.3491 5.10156 15.0185 4.62028 14.6879 4.04274C14.2156 3.27269 14.1684 2.31012 14.4517 1.15504C14.6407 0.384985 15.2546 -0.192555 15.7269 -4.15742e-05C16.0103 0.192472 16.2464 0.384985 16.4825 0.673755C18.2772 2.88766 20.0246 5.19782 21.8193 7.41172C21.9138 7.60424 21.961 7.70049 22.0554 7.70049C22.2444 7.89301 22.5749 7.98926 22.6222 8.27803C22.8111 9.33686 23.1417 10.2994 22.9528 11.4545C22.7639 12.3208 22.4805 12.8984 22.0082 12.9946C21.8665 12.9946 21.7721 13.0909 21.6304 13.1871C19.4107 14.7272 17.191 16.2673 14.924 17.8074L14.8768 17.9037L14.6407 18Z" fill="white"/>
</g>
<defs>
<clipPath id="clip0_1_245">
<rect width="23" height="18" fill="transparent"/>
</clipPath>
</defs>
</svg>
