<svg width="18" height="12" viewBox="0 0 18 12" fill="none" xmlns="http://www.w3.org/2000/svg">
<g clip-path="url(#clip0_1_4312)">
<path d="M1.2891 0.415393C0.811645 0.415393 0.477427 0.600008 0.190955 0.969239C-0.0955173 1.29232 -0.0477719 1.61539 0.14321 1.93847C0.334191 2.26155 0.572918 2.44616 1.00263 2.44616C2.67371 2.40001 4.3448 2.35385 5.96814 2.35385C7.87796 2.3077 9.78777 2.26155 11.6976 2.16924L11.6498 0.0923157C8.21217 0.230777 4.77451 0.323085 1.2891 0.415393Z" fill="black"/>
<path d="M16.711 2.03077C17.1884 2.03077 17.5226 1.84615 17.8091 1.47692C18.0956 1.15385 18.0478 0.830769 17.8569 0.507692C17.6659 0.184615 17.4272 0 16.9974 0C15.3264 0.0461538 13.6553 0.0923077 12.0319 0.0923077C10.1221 0.138462 8.2123 0.184615 6.30249 0.276923L6.35024 2.35385C9.7879 2.26154 13.2256 2.12308 16.711 2.03077Z" fill="black"/>
<path d="M1.2891 5.12307C0.811646 5.12307 0.477428 5.30768 0.190956 5.63076C-0.0955158 5.95383 -0.0955158 6.27691 0.143211 6.59999C0.334192 6.92307 0.572919 7.15383 1.00263 7.10768C2.67371 7.06153 4.3448 7.06153 5.96814 7.01537C7.87796 7.01537 9.78777 6.96922 11.6976 6.87691L11.6498 4.79999C8.21218 4.9846 4.77451 5.07691 1.2891 5.12307Z" fill="black"/>
<path d="M16.6631 6.87691C17.1406 6.87691 17.4748 6.69229 17.7613 6.36922C18.0477 6.04614 18.0477 5.72306 17.809 5.39999C17.618 5.07691 17.3793 4.84614 16.9496 4.89229C15.2785 4.93845 13.6074 4.93845 11.9841 4.9846C10.0743 4.9846 8.16445 5.03076 6.25464 5.12306L6.30238 7.19999C9.78779 7.01537 13.2255 6.92306 16.6631 6.87691Z" fill="black"/>
<path d="M1.33699 9.96922C0.859537 9.96922 0.525319 10.1538 0.238847 10.4769C-0.0476252 10.8 -0.0476252 11.1231 0.143356 11.4461C0.334338 11.8154 0.573064 12 1.00277 12C2.67386 11.9538 4.34495 11.9538 5.96829 11.9538C7.8781 11.9538 9.78792 11.9077 11.6977 11.8615L11.65 9.78461C8.21232 9.87691 4.77466 9.92307 1.33699 9.96922Z" fill="black"/>
<path d="M16.6632 11.8154C17.1407 11.8154 17.4749 11.6308 17.7614 11.3077C18.0478 10.9846 18.0478 10.6615 17.8569 10.3385C17.6659 10.0154 17.4272 9.78462 16.9974 9.83077C15.3264 9.87692 13.6553 9.87692 12.0319 9.87692C10.1221 9.87692 8.2123 9.92308 6.30249 9.96923L6.35024 12.0462C9.7879 11.9077 13.2256 11.8615 16.6632 11.8154Z" fill="black"/>
</g>
<defs>
<clipPath id="clip0_1_4312">
<rect width="18" height="12" fill="white"/>
</clipPath>
</defs>
</svg>
