<?xml version="1.0" encoding="UTF-8"?><svg id="a" xmlns="http://www.w3.org/2000/svg" viewBox="0 0 181.61 166.12"><defs><style>.b{fill:#dff3ed;}</style></defs><path class="b" d="M99.15,147.52c1.55,3.26,5.14,5.46,9.19,6.41,.08,.12,.13,.25,.22,.37,9.45,12.74,32.48,14.74,48.72,8.12,16.01-6.53,25.83-20.62,24.14-33.87-1.78-13.96-12.37-26.67-27.25-35.39-7.26-4.26-15.69-5.75-23.84-3.73,1-3.07,2.1-6.12,3.3-9.14,9.06-22.93,23.99-44.81,44.11-63.67,4.43-4.15,5.55-9.74,0-13.79-4.61-3.37-14.44-4.18-18.9,0-24.9,23.34-43.39,49.92-53.35,78.65-4.37,12.6-8.44,26.5-8.13,39.63-2.67,8.73-2.21,17.99,1.79,26.4"/><path class="b" d="M3.47,147.52c1.55,3.26,5.14,5.46,9.19,6.41,.08,.12,.13,.25,.22,.37,9.45,12.74,32.48,14.74,48.72,8.12,16.01-6.53,25.83-20.62,24.14-33.87-1.78-13.96-12.37-26.67-27.25-35.39-7.26-4.26-15.69-5.75-23.84-3.73,1-3.07,2.1-6.12,3.3-9.14,9.06-22.93,23.99-44.81,44.11-63.67,4.43-4.15,5.55-9.74,0-13.79-4.61-3.37-14.44-4.18-18.9,0C38.25,26.18,19.77,52.75,9.81,81.48,5.43,94.09,1.37,107.98,1.68,121.12c-2.67,8.73-2.21,17.99,1.79,26.4"/></svg>