<svg version="1.1" id="Layer_1" xmlns="http://www.w3.org/2000/svg" xmlns:xlink="http://www.w3.org/1999/xlink" x="0px" y="0px"
	 viewBox="0 0 30.1 23.3" enable-background="new 0 0 30.1 23.3" xml:space="preserve">
<g display="none">
	<defs>
		<path id="SVGID_1_" d="M2.1,0h26c1.1,0,2,0.9,2,2v19.3c0,1.1-0.9,2-2,2h-26c-1.1,0-2-0.9-2-2V2C0.1,0.9,1,0,2.1,0z"/>
	</defs>
	<clipPath id="SVGID_2_" display="inline">
		<use xlink:href="#SVGID_1_"  overflow="visible"/>
	</clipPath>
</g>
<path d="M15.4,21.1c1.1-1,2.1-2.1,3.2-3.1c2.4-2.2,4.7-4.5,6.9-6.9c1-1.1,1.9-2.3,2.5-3.7c0.4-1,0.4-1.9-0.1-2.8
	c-0.5-0.9-1.1-1.6-1.9-2.2c-0.7-0.5-1.5-0.8-2.3-0.7c-1.2,0.1-2.2,0.4-3.2,1c-1.8,1.2-3.4,2.8-4.6,4.6c-0.4,0.5-1.1,0.5-1.5,0.1
	c-1.2-1.4-2.5-2.7-4.1-3.9C9.5,2.7,8.5,2.2,7.3,2C6,1.9,4.9,2,4,2.8C3.1,3.5,2.5,4.3,2.1,5.2C1.7,6.1,1.7,7,2.1,7.8
	c0.5,1.1,1.1,2,2,2.8c1.5,1.5,3,2.9,4.5,4.4C10.8,17.1,13.3,18.9,15.4,21.1z"/>
<path d="M24.3,0c0.2,0.1,0.4,0.1,0.6,0.1c1,0.2,1.8,0.7,2.6,1.3c0.8,0.6,1.4,1.4,1.9,2.3c0.8,1.4,0.8,2.9,0.2,4.4
	c-0.7,1.5-1.7,2.8-2.8,4c-2,2.1-4,4.3-6.2,6.2c-1,0.9-2,1.8-2.9,2.8c-0.5,0.5-0.9,1.1-1.4,1.6c-0.4,0.6-1.1,0.6-1.6,0.1
	c-0.6-0.7-1.3-1.4-2-2c-1.8-1.6-3.7-3.2-5.5-4.8c-1.5-1.4-3-2.8-4.5-4.3c-0.9-1-1.7-2.1-2.3-3.4C-0.2,7-0.2,5.7,0.5,4.4
	C1.2,3.3,2,2.2,3.1,1.4c1.2-0.9,2.5-1.1,4-1c1.7,0.2,3.2,0.9,4.6,1.9c1.2,0.9,2.2,1.9,3.1,3c0.1,0.1,0.2,0.3,0.3,0.4
	c0.1-0.1,0.2-0.2,0.2-0.3c1.1-1.6,2.4-2.9,4-4c1.1-0.8,2.4-1.3,3.8-1.4c0.1,0,0.1,0,0.1-0.1H24.3L24.3,0z"/>
</svg>
