<svg width="30" height="25" viewBox="0 0 30 25" fill="none" xmlns="http://www.w3.org/2000/svg">
<g clip-path="url(#clip0_1_732)">
<path class="heart-shape" d="M15.3631 21.8909C16.4246 20.8741 17.4302 19.8037 18.5475 18.7869C20.9497 16.5927 23.2961 14.2915 25.4748 11.8832C26.4804 10.7594 27.3743 9.58198 27.9888 8.19053C28.4357 7.22723 28.3799 6.26392 27.8771 5.35413C27.3743 4.49785 26.7598 3.74862 25.9776 3.15993C25.3072 2.62476 24.5251 2.35717 23.6313 2.41069C22.4581 2.46421 21.3966 2.78531 20.4469 3.374C18.6033 4.60489 17.095 6.2104 15.81 7.97646C15.419 8.45812 14.7486 8.51164 14.3575 8.02998C13.1843 6.58502 11.8436 5.30061 10.2793 4.17675C9.38546 3.53455 8.37987 2.99938 7.20669 2.83882C5.97764 2.67827 4.86032 2.83882 3.9106 3.58806C3.07261 4.28379 2.45809 5.08654 2.01116 6.04985C1.6201 6.90612 1.6201 7.7624 2.01116 8.61867C2.51395 9.68901 3.12848 10.6523 3.96647 11.4551C5.41898 12.9536 6.92736 14.3985 8.4916 15.8435C10.7262 17.8771 13.1843 19.7502 15.3631 21.8909ZM24.2458 0.805176C24.4693 0.858693 24.6369 0.858693 24.8603 0.91221C25.8659 1.12628 26.7039 1.60793 27.4301 2.25014C28.2123 2.89234 28.8268 3.6951 29.3296 4.55137C30.1676 5.99633 30.1676 7.49481 29.4972 8.99329C28.8268 10.4918 27.8212 11.7762 26.7039 13.0071C24.6927 15.1478 22.6815 17.2884 20.5028 19.2151C19.4972 20.1248 18.5475 21.0346 17.5977 21.9979C17.095 22.4796 16.648 23.0683 16.2011 23.6035C15.7542 24.1921 15.0838 24.2457 14.6369 23.657C14.0223 22.9077 13.3519 22.2655 12.6257 21.6233C10.7821 20.0178 8.88267 18.4658 7.09496 16.8603C5.58658 15.4689 4.0782 14.0239 2.62568 12.5254C1.67596 11.5621 0.89384 10.3847 0.335181 9.15384C-0.223478 7.81591 -0.223479 6.5315 0.446913 5.24709C1.1173 4.06972 1.89943 3.05289 3.01675 2.19662C4.18993 1.34035 5.53071 1.07276 6.98323 1.1798C8.71507 1.34035 10.2234 2.08959 11.5642 3.10641C12.7374 3.96268 13.743 4.97951 14.6369 6.10337C14.7486 6.2104 14.8603 6.37095 14.9721 6.47799C15.0279 6.37095 15.1397 6.26392 15.1955 6.2104C16.3128 4.65841 17.5977 3.32048 19.162 2.25014C20.2793 1.44738 21.5642 0.965727 22.9609 0.858693C23.0167 0.858693 23.0726 0.858693 23.0726 0.805176H24.2458V0.805176Z" fill="#000"/>
<path d="M6.81564 4.81897C7.15084 4.81897 7.48603 4.87249 7.76536 5.08656C8.10056 5.35414 8.21229 5.78228 7.98883 6.10338C7.82123 6.42448 7.3743 6.58503 6.98324 6.478C6.08939 6.26393 5.419 6.69207 5.19553 7.49482C5.19553 7.54834 5.19553 7.65537 5.19553 7.70889C5.2514 8.08351 5.02793 8.45813 4.63687 8.56517C4.30168 8.6722 3.91062 8.51165 3.74302 8.19055C3.57542 7.81593 3.63129 7.49482 3.68715 7.1202C3.96648 5.88931 4.97207 5.03304 6.25698 4.87249C6.48045 4.87249 6.64805 4.87249 6.81564 4.81897Z" fill="#000"/>
</g>
<defs>
<clipPath id="clip0_1_732">
<rect y="0.805176" width="30" height="23.2799" rx="2" fill="transparent"/>
</clipPath>
</defs>
</svg>
