<svg width="18" height="15" viewBox="0 0 18 15" fill="none" xmlns="http://www.w3.org/2000/svg">
<path d="M1.35778 9.10302C0.921032 9.29594 0.689908 9.59985 0.577053 10.0534C0.445549 10.4646 0.619765 10.7409 0.925004 10.9592C1.23024 11.1776 1.52321 11.25 1.91628 11.0764C3.42623 10.3589 4.93618 9.64151 6.4211 8.98559C8.14943 8.17169 9.87775 7.3578 11.5874 6.50169L10.7046 4.62115C7.61595 6.13682 4.5087 7.61027 1.35778 9.10302Z" fill="black"/>
<path d="M16.1174 4.3494C16.5542 4.15648 16.7853 3.85256 16.8981 3.39906C17.0296 2.98778 16.8554 2.71155 16.5502 2.49318C16.245 2.27482 15.952 2.20241 15.5589 2.37604C14.049 3.09347 12.539 3.8109 11.0541 4.46683C9.32577 5.28072 7.59745 6.09462 5.88777 6.95073L6.77064 8.83127C9.87789 7.35782 12.9665 5.84214 16.1174 4.3494Z" fill="black"/>
<path d="M4.64797 1.21054C4.30867 0.874626 3.94128 0.770682 3.47792 0.831525C3.04704 0.859569 2.85367 1.12275 2.76209 1.48671C2.67051 1.85067 2.71027 2.14982 3.01564 2.45214C4.23566 3.59504 5.45567 4.73794 6.60929 5.88005C7.99896 7.19091 9.38862 8.50176 10.8108 9.77982L12.2381 8.27028C9.69769 5.9501 7.1898 3.59711 4.64797 1.21054Z" fill="black"/>
<path d="M14.4709 13.2086C14.8102 13.5445 15.1776 13.6484 15.6409 13.5876C16.0718 13.5595 16.2652 13.2963 16.3568 12.9324C16.4484 12.5684 16.4086 12.2693 16.1032 11.9669C14.8832 10.824 13.6632 9.68115 12.5096 8.53904C11.1199 7.22818 9.73024 5.91733 8.3081 4.63927L6.8808 6.14881C9.3887 8.50179 11.9291 10.822 14.4709 13.2086Z" fill="black"/>
</svg>
