<svg width="25" height="26" viewBox="0 0 25 26" fill="none" xmlns="http://www.w3.org/2000/svg"><g clip-path="url(#clip0_1_917)"><path d="M24.9439 22.6652C24.8879 22.6087 24.8879 22.5522 24.8318 22.4956C24.7197 22.3261 24.6637 22.213 24.5515 22.1C22.7578 20.5174 21.0762 18.8217 19.4506 17.1261L18.9462 16.6739C18.9462 16.6739 18.9462 16.6739 18.9462 16.6174C19.843 15.1478 20.3475 13.5087 20.3475 11.7C20.4036 10.4565 20.2915 9.38261 20.0672 8.30869C19.5067 5.87826 18.3856 3.9 16.7601 2.37391C15.1906 0.847825 13.4529 0.0565211 11.491 -6.36611e-07C10.2578 -0.0565224 9.13674 0.0565211 8.12777 0.282608C6.61432 0.734782 5.21298 1.41304 3.92374 2.43043C3.75558 2.54348 3.64347 2.71304 3.53136 2.88261C3.53136 2.93913 3.47531 2.99565 3.41925 3.05217C3.41925 3.1087 3.3632 3.16522 3.30715 3.22174C3.30715 3.27826 3.25109 3.33478 3.25109 3.33478C1.84975 4.91739 0.896832 6.55652 0.392347 8.42174C-2.95474e-05 9.8913 -0.112137 11.0783 0.112078 12.2652C0.392347 14.1304 1.12105 15.8826 2.18607 17.5217C3.08293 18.8217 4.0919 19.7261 5.32508 20.3478C7.23091 21.2522 9.3049 21.5913 11.7152 21.4217C13.0045 21.3087 14.2937 20.913 15.4708 20.1217L15.695 20.0087C17.0964 21.7043 18.7219 23.287 20.1233 24.6435C20.1793 24.7 20.2354 24.7565 20.2915 24.813C20.5717 25.0957 20.852 25.3783 21.2444 25.6043C21.3565 25.8304 21.5246 25.9435 21.7489 26.0565H22.1412L22.1973 26C22.2533 25.9435 22.3094 25.887 22.3654 25.8304C22.5336 25.7174 22.6457 25.6043 22.8139 25.4913C23.3744 24.9826 23.935 24.4739 24.4394 23.9652C24.6076 23.7957 24.7197 23.6261 24.8318 23.4565C24.8879 23.4 24.9439 23.287 25 23.2304L25.056 23.1739L24.9439 22.6652ZM6.89459 19.1609C5.5493 18.7087 4.48428 17.8609 3.64347 16.6739C2.6345 15.2043 1.96185 13.6783 1.73764 12.0391V11.9826C1.68158 11.9261 1.68158 11.813 1.68158 11.7565C1.68158 11.587 1.68158 11.4174 1.62553 11.2478V10.9652C1.62553 10.1174 1.84975 9.38261 2.07396 8.53478L2.18607 8.25217C2.69055 6.61304 3.64347 5.36956 4.59638 4.29565L4.65244 4.23913C4.98876 3.9 5.32508 3.50435 5.60535 3.16522C5.60535 3.16522 5.60535 3.16522 5.66141 3.1087C6.67037 2.54348 7.79145 2.03478 9.02464 1.80869C10.6502 1.52609 11.8834 1.58261 13.0045 1.92174C14.3497 2.37391 15.5269 3.22174 16.4798 4.52174C17.6009 5.9913 18.3296 7.57391 18.5538 9.32609C18.6659 10.1739 18.7219 10.9652 18.7219 11.587C18.6098 14.3 17.4888 16.5043 15.3027 18.1435C14.2376 18.9348 13.3968 19.387 12.5 19.5565C11.7152 19.7261 10.8744 19.7826 9.97755 19.7261C8.85647 19.6696 7.8475 19.5 6.89459 19.1609ZM18.0493 17.9174C19.4506 19.5565 21.0762 21.1957 23.0941 23.0043L21.917 24.0783L16.9843 19.1043L18.0493 17.9174Z" fill="black"></path><path d="M11.3229 5.82173C11.9394 5.87826 12.4439 6.04782 12.8363 6.33043C14.1255 7.17826 14.7982 8.30869 14.8542 9.8913C14.8542 10.4 15.2466 10.7391 15.639 10.7391C15.8632 10.7391 16.0314 10.6261 16.1995 10.513C16.3677 10.3435 16.4237 10.1174 16.4237 9.8913C16.4237 9.55217 16.3677 9.15652 16.2556 8.76087C15.8632 6.61304 13.8453 4.40869 11.2107 4.40869H11.0986C10.7063 4.40869 10.3699 4.63478 10.3139 4.97391C10.2578 5.36956 10.482 5.70869 10.8184 5.82173C11.0426 5.82173 11.1547 5.82173 11.3229 5.82173Z" fill="black"></path></g><defs><clipPath id="clip0_1_917"><rect width="25" height="26" fill="white"></rect></clipPath></defs></svg>